<mxfile host="app.diagrams.net" modified="2023-06-16T09:37:59.922Z" agent="Mozilla/5.0 (Macintosh; Intel Mac OS X 10_15_7) AppleWebKit/537.36 (KHTML, like Gecko) Chrome/113.0.0.0 Safari/537.36" etag="nFKccHsGp1m6X9QP3kvJ" version="21.4.0" type="github">
  <diagram name="Page-1" id="jY5gFjf3i85i_nCbhtwK">
    <mxGraphModel dx="2022" dy="616" grid="1" gridSize="10" guides="1" tooltips="1" connect="1" arrows="1" fold="1" page="1" pageScale="1" pageWidth="827" pageHeight="1169" math="0" shadow="0">
      <root>
        <mxCell id="0" />
        <mxCell id="1" parent="0" />
        <mxCell id="iXnFn7y6UCGAYkhMm21r-1" value="&lt;b&gt;&lt;font color=&quot;#009900&quot;&gt;CruddureVPC&lt;/font&gt;&lt;/b&gt;&lt;br&gt;&lt;font color=&quot;#009900&quot;&gt;&lt;b&gt;10.0.0.0/32&lt;/b&gt;&lt;/font&gt;" style="points=[[0,0],[0.25,0],[0.5,0],[0.75,0],[1,0],[1,0.25],[1,0.5],[1,0.75],[1,1],[0.75,1],[0.5,1],[0.25,1],[0,1],[0,0.75],[0,0.5],[0,0.25]];outlineConnect=0;gradientColor=none;html=1;whiteSpace=wrap;fontSize=12;fontStyle=0;container=1;pointerEvents=0;collapsible=0;recursiveResize=0;shape=mxgraph.aws4.group;grIcon=mxgraph.aws4.group_vpc;strokeColor=#248814;fillColor=none;verticalAlign=top;align=left;spacingLeft=30;fontColor=#AAB7B8;dashed=0;" vertex="1" parent="1">
          <mxGeometry x="120" y="120" width="640" height="800" as="geometry" />
        </mxCell>
        <mxCell id="iXnFn7y6UCGAYkhMm21r-2" value="AZ1 (eu-west-3)" style="fillColor=none;strokeColor=#147EBA;dashed=1;verticalAlign=top;fontStyle=0;fontColor=#147EBA;whiteSpace=wrap;html=1;align=left;" vertex="1" parent="iXnFn7y6UCGAYkhMm21r-1">
          <mxGeometry x="40" y="80" width="560" height="200" as="geometry" />
        </mxCell>
        <mxCell id="iXnFn7y6UCGAYkhMm21r-9" value="SubnetPub1&lt;br&gt;10.0.0.0/22" style="points=[[0,0],[0.25,0],[0.5,0],[0.75,0],[1,0],[1,0.25],[1,0.5],[1,0.75],[1,1],[0.75,1],[0.5,1],[0.25,1],[0,1],[0,0.75],[0,0.5],[0,0.25]];outlineConnect=0;gradientColor=none;html=1;whiteSpace=wrap;fontSize=12;fontStyle=0;container=1;pointerEvents=0;collapsible=0;recursiveResize=0;shape=mxgraph.aws4.group;grIcon=mxgraph.aws4.group_security_group;grStroke=0;strokeColor=#248814;fillColor=#E9F3E6;verticalAlign=top;align=left;spacingLeft=30;fontColor=#248814;dashed=0;" vertex="1" parent="iXnFn7y6UCGAYkhMm21r-1">
          <mxGeometry x="80" y="120" width="200" height="130" as="geometry" />
        </mxCell>
        <mxCell id="iXnFn7y6UCGAYkhMm21r-20" style="edgeStyle=orthogonalEdgeStyle;rounded=0;orthogonalLoop=1;jettySize=auto;html=1;strokeColor=#6600CC;strokeWidth=2;dashed=1;endArrow=none;endFill=0;startArrow=baseDash;startFill=0;" edge="1" parent="iXnFn7y6UCGAYkhMm21r-1" source="iXnFn7y6UCGAYkhMm21r-10">
          <mxGeometry relative="1" as="geometry">
            <mxPoint x="620" y="290" as="targetPoint" />
            <Array as="points">
              <mxPoint x="420" y="290" />
              <mxPoint x="610" y="290" />
            </Array>
          </mxGeometry>
        </mxCell>
        <mxCell id="iXnFn7y6UCGAYkhMm21r-10" value="SubnetPriv1&lt;br&gt;10.0.12.0/22" style="points=[[0,0],[0.25,0],[0.5,0],[0.75,0],[1,0],[1,0.25],[1,0.5],[1,0.75],[1,1],[0.75,1],[0.5,1],[0.25,1],[0,1],[0,0.75],[0,0.5],[0,0.25]];outlineConnect=0;gradientColor=none;html=1;whiteSpace=wrap;fontSize=12;fontStyle=0;container=1;pointerEvents=0;collapsible=0;recursiveResize=0;shape=mxgraph.aws4.group;grIcon=mxgraph.aws4.group_security_group;grStroke=0;strokeColor=#147EBA;fillColor=#E6F2F8;verticalAlign=top;align=left;spacingLeft=30;fontColor=#147EBA;dashed=0;" vertex="1" parent="iXnFn7y6UCGAYkhMm21r-1">
          <mxGeometry x="320" y="120" width="200" height="130" as="geometry" />
        </mxCell>
        <mxCell id="iXnFn7y6UCGAYkhMm21r-13" value="AZ1 (eu-west-3)" style="fillColor=none;strokeColor=#147EBA;dashed=1;verticalAlign=top;fontStyle=0;fontColor=#147EBA;whiteSpace=wrap;html=1;align=left;" vertex="1" parent="iXnFn7y6UCGAYkhMm21r-1">
          <mxGeometry x="40" y="320" width="560" height="200" as="geometry" />
        </mxCell>
        <mxCell id="iXnFn7y6UCGAYkhMm21r-14" value="SubnetPub1&lt;br&gt;10.0.4.0/22" style="points=[[0,0],[0.25,0],[0.5,0],[0.75,0],[1,0],[1,0.25],[1,0.5],[1,0.75],[1,1],[0.75,1],[0.5,1],[0.25,1],[0,1],[0,0.75],[0,0.5],[0,0.25]];outlineConnect=0;gradientColor=none;html=1;whiteSpace=wrap;fontSize=12;fontStyle=0;container=1;pointerEvents=0;collapsible=0;recursiveResize=0;shape=mxgraph.aws4.group;grIcon=mxgraph.aws4.group_security_group;grStroke=0;strokeColor=#248814;fillColor=#E9F3E6;verticalAlign=top;align=left;spacingLeft=30;fontColor=#248814;dashed=0;" vertex="1" parent="iXnFn7y6UCGAYkhMm21r-1">
          <mxGeometry x="80" y="360" width="200" height="130" as="geometry" />
        </mxCell>
        <mxCell id="iXnFn7y6UCGAYkhMm21r-15" value="SubnetPriv1&lt;br&gt;10.0.16.0/22" style="points=[[0,0],[0.25,0],[0.5,0],[0.75,0],[1,0],[1,0.25],[1,0.5],[1,0.75],[1,1],[0.75,1],[0.5,1],[0.25,1],[0,1],[0,0.75],[0,0.5],[0,0.25]];outlineConnect=0;gradientColor=none;html=1;whiteSpace=wrap;fontSize=12;fontStyle=0;container=1;pointerEvents=0;collapsible=0;recursiveResize=0;shape=mxgraph.aws4.group;grIcon=mxgraph.aws4.group_security_group;grStroke=0;strokeColor=#147EBA;fillColor=#E6F2F8;verticalAlign=top;align=left;spacingLeft=30;fontColor=#147EBA;dashed=0;" vertex="1" parent="iXnFn7y6UCGAYkhMm21r-1">
          <mxGeometry x="320" y="360" width="200" height="130" as="geometry" />
        </mxCell>
        <mxCell id="iXnFn7y6UCGAYkhMm21r-16" value="AZ1 (eu-west-3)" style="fillColor=none;strokeColor=#147EBA;dashed=1;verticalAlign=top;fontStyle=0;fontColor=#147EBA;whiteSpace=wrap;html=1;align=left;" vertex="1" parent="iXnFn7y6UCGAYkhMm21r-1">
          <mxGeometry x="40" y="560" width="560" height="200" as="geometry" />
        </mxCell>
        <mxCell id="iXnFn7y6UCGAYkhMm21r-17" value="SubnetPub1&lt;br&gt;10.0.8.0/22" style="points=[[0,0],[0.25,0],[0.5,0],[0.75,0],[1,0],[1,0.25],[1,0.5],[1,0.75],[1,1],[0.75,1],[0.5,1],[0.25,1],[0,1],[0,0.75],[0,0.5],[0,0.25]];outlineConnect=0;gradientColor=none;html=1;whiteSpace=wrap;fontSize=12;fontStyle=0;container=1;pointerEvents=0;collapsible=0;recursiveResize=0;shape=mxgraph.aws4.group;grIcon=mxgraph.aws4.group_security_group;grStroke=0;strokeColor=#248814;fillColor=#E9F3E6;verticalAlign=top;align=left;spacingLeft=30;fontColor=#248814;dashed=0;" vertex="1" parent="iXnFn7y6UCGAYkhMm21r-1">
          <mxGeometry x="80" y="600" width="200" height="130" as="geometry" />
        </mxCell>
        <mxCell id="iXnFn7y6UCGAYkhMm21r-18" value="SubnetPriv1&lt;br&gt;10.0.20.0/22" style="points=[[0,0],[0.25,0],[0.5,0],[0.75,0],[1,0],[1,0.25],[1,0.5],[1,0.75],[1,1],[0.75,1],[0.5,1],[0.25,1],[0,1],[0,0.75],[0,0.5],[0,0.25]];outlineConnect=0;gradientColor=none;html=1;whiteSpace=wrap;fontSize=12;fontStyle=0;container=1;pointerEvents=0;collapsible=0;recursiveResize=0;shape=mxgraph.aws4.group;grIcon=mxgraph.aws4.group_security_group;grStroke=0;strokeColor=#147EBA;fillColor=#E6F2F8;verticalAlign=top;align=left;spacingLeft=30;fontColor=#147EBA;dashed=0;" vertex="1" parent="iXnFn7y6UCGAYkhMm21r-1">
          <mxGeometry x="320" y="600" width="200" height="130" as="geometry" />
        </mxCell>
        <mxCell id="iXnFn7y6UCGAYkhMm21r-21" style="edgeStyle=orthogonalEdgeStyle;rounded=0;orthogonalLoop=1;jettySize=auto;html=1;strokeColor=#6600CC;strokeWidth=2;dashed=1;endArrow=none;endFill=0;startArrow=baseDash;startFill=0;" edge="1" parent="iXnFn7y6UCGAYkhMm21r-1">
          <mxGeometry relative="1" as="geometry">
            <mxPoint x="630" y="529" as="targetPoint" />
            <mxPoint x="430" y="489" as="sourcePoint" />
            <Array as="points">
              <mxPoint x="430" y="529" />
              <mxPoint x="620" y="529" />
            </Array>
          </mxGeometry>
        </mxCell>
        <mxCell id="iXnFn7y6UCGAYkhMm21r-22" style="edgeStyle=orthogonalEdgeStyle;rounded=0;orthogonalLoop=1;jettySize=auto;html=1;strokeColor=#6600CC;strokeWidth=2;dashed=1;endArrow=none;endFill=0;startArrow=baseDash;startFill=0;" edge="1" parent="iXnFn7y6UCGAYkhMm21r-1">
          <mxGeometry relative="1" as="geometry">
            <mxPoint x="190" y="489" as="sourcePoint" />
            <mxPoint x="620" y="301" as="targetPoint" />
            <Array as="points">
              <mxPoint x="190" y="539" />
              <mxPoint x="620" y="539" />
            </Array>
          </mxGeometry>
        </mxCell>
        <mxCell id="iXnFn7y6UCGAYkhMm21r-3" value="" style="sketch=0;outlineConnect=0;fontColor=#232F3E;gradientColor=none;fillColor=#4D27AA;strokeColor=none;dashed=0;verticalLabelPosition=bottom;verticalAlign=top;align=center;html=1;fontSize=12;fontStyle=0;aspect=fixed;pointerEvents=1;shape=mxgraph.aws4.internet_gateway;" vertex="1" parent="1">
          <mxGeometry x="160" y="11" width="78" height="78" as="geometry" />
        </mxCell>
        <mxCell id="iXnFn7y6UCGAYkhMm21r-6" style="edgeStyle=orthogonalEdgeStyle;rounded=0;orthogonalLoop=1;jettySize=auto;html=1;" edge="1" parent="1" source="iXnFn7y6UCGAYkhMm21r-4" target="iXnFn7y6UCGAYkhMm21r-5">
          <mxGeometry relative="1" as="geometry">
            <mxPoint x="550" y="70" as="targetPoint" />
            <Array as="points">
              <mxPoint x="609" y="50" />
              <mxPoint x="609" y="70" />
              <mxPoint x="549" y="70" />
            </Array>
          </mxGeometry>
        </mxCell>
        <mxCell id="iXnFn7y6UCGAYkhMm21r-11" value="local (10.0.0.0/32)" style="edgeLabel;html=1;align=center;verticalAlign=middle;resizable=0;points=[];" vertex="1" connectable="0" parent="iXnFn7y6UCGAYkhMm21r-6">
          <mxGeometry x="-0.0563" y="-2" relative="1" as="geometry">
            <mxPoint y="-2" as="offset" />
          </mxGeometry>
        </mxCell>
        <mxCell id="iXnFn7y6UCGAYkhMm21r-7" style="edgeStyle=orthogonalEdgeStyle;rounded=0;orthogonalLoop=1;jettySize=auto;html=1;" edge="1" parent="1" source="iXnFn7y6UCGAYkhMm21r-4" target="iXnFn7y6UCGAYkhMm21r-3">
          <mxGeometry relative="1" as="geometry" />
        </mxCell>
        <mxCell id="iXnFn7y6UCGAYkhMm21r-12" value="0.0.0.0/32&lt;br&gt;" style="edgeLabel;html=1;align=center;verticalAlign=middle;resizable=0;points=[];" vertex="1" connectable="0" parent="iXnFn7y6UCGAYkhMm21r-7">
          <mxGeometry x="0.0507" relative="1" as="geometry">
            <mxPoint as="offset" />
          </mxGeometry>
        </mxCell>
        <mxCell id="iXnFn7y6UCGAYkhMm21r-4" value="" style="sketch=0;outlineConnect=0;fontColor=#232F3E;gradientColor=none;fillColor=#4D27AA;strokeColor=none;dashed=0;verticalLabelPosition=bottom;verticalAlign=top;align=center;html=1;fontSize=12;fontStyle=0;aspect=fixed;pointerEvents=1;shape=mxgraph.aws4.route_table;" vertex="1" parent="1">
          <mxGeometry x="400" y="12" width="78" height="76" as="geometry" />
        </mxCell>
        <mxCell id="iXnFn7y6UCGAYkhMm21r-5" value="VPC Router" style="sketch=0;outlineConnect=0;fontColor=#232F3E;gradientColor=none;fillColor=#4D27AA;strokeColor=none;dashed=0;verticalLabelPosition=bottom;verticalAlign=top;align=center;html=1;fontSize=12;fontStyle=0;aspect=fixed;pointerEvents=1;shape=mxgraph.aws4.customer_gateway;" vertex="1" parent="1">
          <mxGeometry x="510" y="80" width="78" height="78" as="geometry" />
        </mxCell>
        <mxCell id="iXnFn7y6UCGAYkhMm21r-19" style="edgeStyle=orthogonalEdgeStyle;rounded=0;orthogonalLoop=1;jettySize=auto;html=1;strokeColor=#6600CC;strokeWidth=2;dashed=1;endArrow=classic;endFill=0;startArrow=baseDash;startFill=0;" edge="1" parent="1" source="iXnFn7y6UCGAYkhMm21r-9" target="iXnFn7y6UCGAYkhMm21r-5">
          <mxGeometry relative="1" as="geometry">
            <Array as="points">
              <mxPoint x="300" y="420" />
              <mxPoint x="740" y="420" />
              <mxPoint x="740" y="130" />
            </Array>
          </mxGeometry>
        </mxCell>
        <mxCell id="iXnFn7y6UCGAYkhMm21r-26" value="&lt;font color=&quot;#6600cc&quot;&gt;&lt;b&gt;Subnet Direction Assocations&lt;/b&gt;&lt;/font&gt;" style="edgeLabel;html=1;align=center;verticalAlign=middle;resizable=0;points=[];" vertex="1" connectable="0" parent="iXnFn7y6UCGAYkhMm21r-19">
          <mxGeometry x="0.8391" y="1" relative="1" as="geometry">
            <mxPoint x="16" y="-3" as="offset" />
          </mxGeometry>
        </mxCell>
        <mxCell id="iXnFn7y6UCGAYkhMm21r-23" style="edgeStyle=orthogonalEdgeStyle;rounded=0;orthogonalLoop=1;jettySize=auto;html=1;strokeColor=#6600CC;strokeWidth=2;dashed=1;endArrow=none;endFill=0;startArrow=baseDash;startFill=0;" edge="1" parent="1">
          <mxGeometry relative="1" as="geometry">
            <mxPoint x="740" y="890" as="targetPoint" />
            <mxPoint x="560" y="850" as="sourcePoint" />
            <Array as="points">
              <mxPoint x="560" y="890" />
            </Array>
          </mxGeometry>
        </mxCell>
        <mxCell id="iXnFn7y6UCGAYkhMm21r-24" style="edgeStyle=orthogonalEdgeStyle;rounded=0;orthogonalLoop=1;jettySize=auto;html=1;strokeColor=#6600CC;strokeWidth=2;dashed=1;endArrow=none;endFill=0;startArrow=baseDash;startFill=0;" edge="1" parent="1">
          <mxGeometry relative="1" as="geometry">
            <mxPoint x="320" y="850" as="sourcePoint" />
            <mxPoint x="740" y="660" as="targetPoint" />
            <Array as="points">
              <mxPoint x="320" y="900" />
              <mxPoint x="740" y="900" />
            </Array>
          </mxGeometry>
        </mxCell>
        <mxCell id="iXnFn7y6UCGAYkhMm21r-32" value="" style="group;verticalAlign=top;horizontal=0;" vertex="1" connectable="0" parent="1">
          <mxGeometry x="-400" y="121" width="480" height="480" as="geometry" />
        </mxCell>
        <mxCell id="iXnFn7y6UCGAYkhMm21r-29" value="" style="whiteSpace=wrap;html=1;aspect=fixed;strokeColor=#b0084d;strokeWidth=2;" vertex="1" parent="iXnFn7y6UCGAYkhMm21r-32">
          <mxGeometry width="480" height="480" as="geometry" />
        </mxCell>
        <mxCell id="iXnFn7y6UCGAYkhMm21r-30" value="" style="whiteSpace=wrap;html=1;aspect=fixed;fillColor=#B0084D;" vertex="1" parent="iXnFn7y6UCGAYkhMm21r-32">
          <mxGeometry width="80" height="80" as="geometry" />
        </mxCell>
        <mxCell id="iXnFn7y6UCGAYkhMm21r-27" value="&lt;br&gt;&lt;br&gt;" style="sketch=0;outlineConnect=0;fontColor=#232F3E;gradientColor=none;fillColor=#FFFFFF;strokeColor=none;dashed=0;verticalLabelPosition=bottom;verticalAlign=top;align=center;html=1;fontSize=12;fontStyle=0;aspect=fixed;pointerEvents=1;shape=mxgraph.aws4.stack;" vertex="1" parent="iXnFn7y6UCGAYkhMm21r-32">
          <mxGeometry x="21.529999999999973" y="22" width="36.95" height="36" as="geometry" />
        </mxCell>
        <mxCell id="iXnFn7y6UCGAYkhMm21r-31" value="Cruddur Stack" style="text;strokeColor=none;fillColor=none;align=left;verticalAlign=middle;spacingLeft=4;spacingRight=4;overflow=hidden;points=[[0,0.5],[1,0.5]];portConstraint=eastwest;rotatable=0;whiteSpace=wrap;html=1;fontFamily=Verdana;fontStyle=1;fontColor=#B0084D;" vertex="1" parent="iXnFn7y6UCGAYkhMm21r-32">
          <mxGeometry x="80" y="22" width="120" height="30" as="geometry" />
        </mxCell>
        <mxCell id="iXnFn7y6UCGAYkhMm21r-28" value="Cluster" style="sketch=0;outlineConnect=0;fontColor=#232F3E;gradientColor=none;fillColor=#B0084D;strokeColor=none;dashed=0;verticalLabelPosition=bottom;verticalAlign=top;align=center;html=1;fontSize=12;fontStyle=0;aspect=fixed;pointerEvents=1;shape=mxgraph.aws4.template;" vertex="1" parent="iXnFn7y6UCGAYkhMm21r-32">
          <mxGeometry x="30" y="130" width="65" height="78" as="geometry" />
        </mxCell>
        <mxCell id="iXnFn7y6UCGAYkhMm21r-33" value="Service&lt;br&gt;" style="sketch=0;outlineConnect=0;fontColor=#232F3E;gradientColor=none;fillColor=#B0084D;strokeColor=none;dashed=0;verticalLabelPosition=bottom;verticalAlign=top;align=center;html=1;fontSize=12;fontStyle=0;aspect=fixed;pointerEvents=1;shape=mxgraph.aws4.template;" vertex="1" parent="iXnFn7y6UCGAYkhMm21r-32">
          <mxGeometry x="390" y="370" width="65" height="78" as="geometry" />
        </mxCell>
        <mxCell id="iXnFn7y6UCGAYkhMm21r-34" value="CI/CD&lt;br&gt;" style="sketch=0;outlineConnect=0;fontColor=#232F3E;gradientColor=none;fillColor=#B0084D;strokeColor=none;dashed=0;verticalLabelPosition=bottom;verticalAlign=top;align=center;html=1;fontSize=12;fontStyle=0;aspect=fixed;pointerEvents=1;shape=mxgraph.aws4.template;" vertex="1" parent="iXnFn7y6UCGAYkhMm21r-32">
          <mxGeometry x="390" y="130" width="65" height="78" as="geometry" />
        </mxCell>
        <mxCell id="iXnFn7y6UCGAYkhMm21r-48" style="edgeStyle=orthogonalEdgeStyle;rounded=0;orthogonalLoop=1;jettySize=auto;html=1;" edge="1" parent="iXnFn7y6UCGAYkhMm21r-32" source="iXnFn7y6UCGAYkhMm21r-35">
          <mxGeometry relative="1" as="geometry">
            <mxPoint x="98" y="271" as="targetPoint" />
            <Array as="points">
              <mxPoint x="60" y="269" />
              <mxPoint x="90" y="269" />
              <mxPoint x="90" y="271" />
            </Array>
          </mxGeometry>
        </mxCell>
        <mxCell id="iXnFn7y6UCGAYkhMm21r-35" value="Networking" style="sketch=0;outlineConnect=0;fontColor=#232F3E;gradientColor=none;fillColor=#B0084D;strokeColor=none;dashed=0;verticalLabelPosition=bottom;verticalAlign=top;align=center;html=1;fontSize=12;fontStyle=0;aspect=fixed;pointerEvents=1;shape=mxgraph.aws4.template;" vertex="1" parent="iXnFn7y6UCGAYkhMm21r-32">
          <mxGeometry x="21.53" y="360" width="65" height="78" as="geometry" />
        </mxCell>
        <mxCell id="iXnFn7y6UCGAYkhMm21r-50" style="edgeStyle=orthogonalEdgeStyle;rounded=0;orthogonalLoop=1;jettySize=auto;html=1;" edge="1" parent="iXnFn7y6UCGAYkhMm21r-32" source="iXnFn7y6UCGAYkhMm21r-44" target="iXnFn7y6UCGAYkhMm21r-28">
          <mxGeometry relative="1" as="geometry">
            <Array as="points">
              <mxPoint x="153" y="175" />
            </Array>
          </mxGeometry>
        </mxCell>
        <mxCell id="iXnFn7y6UCGAYkhMm21r-44" value="  Networking exports" style="whiteSpace=wrap;aspect=fixed;align=center;verticalAlign=top;fontColor=#000000;labelBorderColor=none;spacingRight=18;rounded=0;strokeColor=default;fontSize=6;strokeWidth=1;dashed=1;dashPattern=8 8;glass=0;shadow=1;" vertex="1" parent="iXnFn7y6UCGAYkhMm21r-32">
          <mxGeometry x="98" y="230" width="82" height="82" as="geometry" />
        </mxCell>
        <mxCell id="iXnFn7y6UCGAYkhMm21r-40" value="VpcId" style="rounded=1;whiteSpace=wrap;fontSize=6;html=1;spacingTop=0;spacing=0;fontColor=#B0084D;fontStyle=1;align=center;strokeColor=#B0084D;" vertex="1" parent="iXnFn7y6UCGAYkhMm21r-32">
          <mxGeometry x="100" y="250" width="60" height="10.55" as="geometry" />
        </mxCell>
        <mxCell id="iXnFn7y6UCGAYkhMm21r-47" value="" style="group;align=center;" vertex="1" connectable="0" parent="iXnFn7y6UCGAYkhMm21r-32">
          <mxGeometry x="100" y="250" width="104.28571428571429" height="52.739999999999995" as="geometry" />
        </mxCell>
        <mxCell id="iXnFn7y6UCGAYkhMm21r-41" value="&lt;div style=&quot;background-color: rgb(255, 255, 255); font-family: Menlo, Monaco, &amp;quot;Courier New&amp;quot;, monospace; line-height: 72%; font-size: 6px;&quot;&gt;&lt;div style=&quot;line-height: 72%; font-size: 6px;&quot;&gt;&lt;font style=&quot;font-size: 6px;&quot;&gt;&lt;span style=&quot;font-size: 6px;&quot;&gt;VpcCidrBlock&lt;/span&gt;&lt;/font&gt;&lt;/div&gt;&lt;/div&gt;" style="rounded=1;whiteSpace=wrap;html=1;fontSize=6;spacingTop=-3;fontColor=#B0084D;fontStyle=1;align=center;strokeColor=#B0084D;" vertex="1" parent="iXnFn7y6UCGAYkhMm21r-47">
          <mxGeometry y="10.55" width="60" height="10.55" as="geometry" />
        </mxCell>
        <mxCell id="iXnFn7y6UCGAYkhMm21r-42" value="&lt;div style=&quot;background-color: rgb(255, 255, 255); font-family: Menlo, Monaco, &amp;quot;Courier New&amp;quot;, monospace; line-height: 92%; font-size: 6px;&quot;&gt;&lt;div style=&quot;line-height: 92%; font-size: 6px;&quot;&gt;&lt;div style=&quot;line-height: 92%; font-size: 6px;&quot;&gt;&lt;font style=&quot;font-size: 6px;&quot;&gt;SubnetCidrBlocks&lt;/font&gt;&lt;/div&gt;&lt;/div&gt;&lt;/div&gt;" style="rounded=1;whiteSpace=wrap;html=1;fontSize=6;spacingTop=-2;fontColor=#B0084D;fontStyle=1;align=center;strokeColor=#B0084D;" vertex="1" parent="iXnFn7y6UCGAYkhMm21r-47">
          <mxGeometry y="21.09" width="60" height="10.55" as="geometry" />
        </mxCell>
        <mxCell id="iXnFn7y6UCGAYkhMm21r-43" value="&lt;div style=&quot;background-color: rgb(255, 255, 255); font-family: Menlo, Monaco, &amp;quot;Courier New&amp;quot;, monospace; line-height: 92%; font-size: 6px;&quot;&gt;&lt;font style=&quot;font-size: 6px;&quot;&gt;SubnetIds&lt;/font&gt;&lt;/div&gt;" style="rounded=1;whiteSpace=wrap;html=1;fontSize=6;spacingTop=-3;fontColor=#B0084D;verticalAlign=middle;align=center;fontStyle=1;strokeColor=#B0084D;" vertex="1" parent="iXnFn7y6UCGAYkhMm21r-47">
          <mxGeometry y="31.64" width="60" height="10.55" as="geometry" />
        </mxCell>
        <mxCell id="iXnFn7y6UCGAYkhMm21r-46" value="&lt;div style=&quot;background-color: rgb(255, 255, 255); font-family: Menlo, Monaco, &amp;quot;Courier New&amp;quot;, monospace; line-height: 71%; font-size: 6px;&quot;&gt;&lt;font style=&quot;font-size: 6px;&quot;&gt;AvailabilityZones&lt;/font&gt;&lt;/div&gt;" style="rounded=1;whiteSpace=wrap;html=1;fontSize=6;spacingTop=-1;fontColor=#B0084D;fontStyle=1;align=center;strokeColor=#B0084D;" vertex="1" parent="iXnFn7y6UCGAYkhMm21r-47">
          <mxGeometry y="42.19" width="60" height="10.55" as="geometry" />
        </mxCell>
        <mxCell id="iXnFn7y6UCGAYkhMm21r-38" style="edgeStyle=orthogonalEdgeStyle;rounded=0;orthogonalLoop=1;jettySize=auto;html=1;" edge="1" parent="1" source="iXnFn7y6UCGAYkhMm21r-36">
          <mxGeometry relative="1" as="geometry">
            <mxPoint x="-400" y="319" as="targetPoint" />
            <mxPoint x="-645.0082725615316" y="319" as="sourcePoint" />
          </mxGeometry>
        </mxCell>
        <mxCell id="iXnFn7y6UCGAYkhMm21r-39" value="&lt;b&gt;All cfn uploads are stored in this bucket&lt;/b&gt;" style="edgeLabel;html=1;align=center;verticalAlign=middle;resizable=0;points=[];" vertex="1" connectable="0" parent="iXnFn7y6UCGAYkhMm21r-38">
          <mxGeometry x="-0.2622" y="-4" relative="1" as="geometry">
            <mxPoint x="30" y="-4" as="offset" />
          </mxGeometry>
        </mxCell>
        <mxCell id="iXnFn7y6UCGAYkhMm21r-36" value="cfn-artifacts" style="sketch=0;outlineConnect=0;fontColor=#232F3E;gradientColor=none;fillColor=#3F8624;strokeColor=none;dashed=0;verticalLabelPosition=bottom;verticalAlign=top;align=center;html=1;fontSize=12;fontStyle=0;aspect=fixed;pointerEvents=1;shape=mxgraph.aws4.bucket_with_objects;" vertex="1" parent="1">
          <mxGeometry x="-770" y="280" width="75" height="78" as="geometry" />
        </mxCell>
      </root>
    </mxGraphModel>
  </diagram>
</mxfile>
